<svg id="Calque_1" data-name="Calque 1" xmlns="http://www.w3.org/2000/svg" viewBox="0 0 355.61 444.14"><defs><style>.cls-1{fill:#fff;}</style></defs><path class="cls-1" d="M377.68,224a77.78,77.78,0,0,1,77.79,77.77c0,.41,0,.82,0,1.23a11.13,11.13,0,0,0,13.87,10.94,33.34,33.34,0,1,1,8.35,65.62H288.79a44.45,44.45,0,0,1,.5-88.89c.58,0,1.15,0,1.72,0a11.11,11.11,0,0,0,11.34-8.33A77.82,77.82,0,0,1,377.68,224Zm99.4,66.67a100,100,0,0,0-193.78-22,66.67,66.67,0,0,0,5.49,133.11H477.68a55.56,55.56,0,1,0,0-111.11Z" transform="translate(-222.07 -68.44)"/><path class="cls-1" d="M455.46,79.55a11.11,11.11,0,1,0-22.22,0v22.22a11.11,11.11,0,1,0,22.22,0Zm83.18,43.64a11.11,11.11,0,1,0-15.44-16l-.27.27-15.74,15.71a11.13,11.13,0,1,0,15.74,15.74h0ZM365.77,107.48a11.11,11.11,0,0,0-15.71,15.71l15.71,15.74a11.13,11.13,0,0,0,15.73-15.74Zm38.53,75a44.45,44.45,0,1,1,73.25,48.84,122.77,122.77,0,0,1,11.46,20,66.66,66.66,0,1,0-107.55-71.67A122.48,122.48,0,0,1,404.3,182.46ZM504,273a78,78,0,0,1,33.82,23.82,11.1,11.1,0,0,0,1.64-15.62,10.49,10.49,0,0,0-.77-.86l-15.71-15.72A11.11,11.11,0,0,0,504,273Zm40.4-82.33a11.11,11.11,0,0,0,0,22.22h22.22a11.11,11.11,0,0,0,0-22.22Z" transform="translate(-222.07 -68.44)"/><path class="cls-1" d="M295.93,412.15a10.08,10.08,0,0,1,5.88,13l-30.22,80.58a10.07,10.07,0,0,1-19.12-6.35c.08-.24.17-.47.27-.7L283,418.05a10.09,10.09,0,0,1,13-5.91Zm60.43,0a10.08,10.08,0,0,1,5.88,13L332,505.68a10.07,10.07,0,0,1-19.11-6.35,5.89,5.89,0,0,1,.26-.7l30.21-80.58a10.09,10.09,0,0,1,13-5.91Zm60.43,0a10.08,10.08,0,0,1,5.88,13l-30.22,80.58a10.07,10.07,0,0,1-19.11-6.35c.08-.24.16-.47.26-.7l30.22-80.58a10.08,10.08,0,0,1,13-5.91Zm60.43,0a10.07,10.07,0,0,1,5.88,13l-30.21,80.58A10.07,10.07,0,0,1,434,498.63l30.22-80.58a10.08,10.08,0,0,1,13-5.91Z" transform="translate(-222.07 -68.44)"/></svg>